<svg xmlns="http://www.w3.org/2000/svg" viewBox="0 0 280 64" fill="none">
  <g transform="translate(32, 32)">
    <circle cx="0" cy="0" r="2.5" fill="#D97757"/>
    <line x1="0" y1="-6" x2="0" y2="-15" stroke="#D97757" stroke-width="2.8" stroke-linecap="round"/>
    <line x1="4.24" y1="-4.24" x2="10.6" y2="-10.6" stroke="#D97757" stroke-width="2.8" stroke-linecap="round"/>
    <line x1="6" y1="0" x2="15" y2="0" stroke="#D97757" stroke-width="2.8" stroke-linecap="round"/>
    <line x1="4.24" y1="4.24" x2="10.6" y2="10.6" stroke="#D97757" stroke-width="2.8" stroke-linecap="round"/>
    <line x1="0" y1="6" x2="0" y2="15" stroke="#D97757" stroke-width="2.8" stroke-linecap="round"/>
    <line x1="-4.24" y1="4.24" x2="-10.6" y2="10.6" stroke="#D97757" stroke-width="2.8" stroke-linecap="round"/>
    <line x1="-6" y1="0" x2="-15" y2="0" stroke="#D97757" stroke-width="2.8" stroke-linecap="round"/>
    <line x1="-4.24" y1="-4.24" x2="-10.6" y2="-10.6" stroke="#D97757" stroke-width="2.8" stroke-linecap="round"/>
    <line x1="2.3" y1="-5.54" x2="5.74" y2="-13.86" stroke="#D97757" stroke-width="2.2" stroke-linecap="round"/>
    <line x1="5.54" y1="-2.3" x2="13.86" y2="-5.74" stroke="#D97757" stroke-width="2.2" stroke-linecap="round"/>
    <line x1="5.54" y1="2.3" x2="13.86" y2="5.74" stroke="#D97757" stroke-width="2.2" stroke-linecap="round"/>
    <line x1="2.3" y1="5.54" x2="5.74" y2="13.86" stroke="#D97757" stroke-width="2.2" stroke-linecap="round"/>
    <line x1="-2.3" y1="5.54" x2="-5.74" y2="13.86" stroke="#D97757" stroke-width="2.2" stroke-linecap="round"/>
    <line x1="-5.54" y1="2.3" x2="-13.86" y2="5.74" stroke="#D97757" stroke-width="2.2" stroke-linecap="round"/>
    <line x1="-5.54" y1="-2.3" x2="-13.86" y2="-5.74" stroke="#D97757" stroke-width="2.2" stroke-linecap="round"/>
    <line x1="-2.3" y1="-5.54" x2="-5.74" y2="-13.86" stroke="#D97757" stroke-width="2.2" stroke-linecap="round"/>
  </g>
  <text x="58" y="44" font-family="'Source Serif 4', 'Source Serif Pro', Georgia, serif" font-size="38" font-weight="600" fill="#141413" letter-spacing="-0.5">Claudit</text>
</svg>
